<?xml version="1.0" encoding="UTF-8"?>
<svg version="1.1" xmlns="http://www.w3.org/2000/svg" width="330" height="332">
<path d="M0 0 C108.9 0 217.8 0 330 0 C330 109.56 330 219.12 330 332 C221.1 332 112.2 332 0 332 C0 222.44 0 112.88 0 0 Z " fill="#FEFEFE" transform="translate(0,0)"/>
<path d="M0 0 C7.15387367 5.85316937 13.98864882 13.97347974 14.98828125 23.52734375 C15.40864473 38.5940557 7.75924974 50.030199 0.3359375 62.56591797 C-1.61883127 65.87421967 -3.54065013 69.20083043 -5.45996094 72.52978516 C-6.81847251 74.88535594 -8.18191902 77.23800216 -9.546875 79.58984375 C-11.3306251 82.66392531 -13.11198765 85.73936363 -14.890625 88.81640625 C-18.77960885 95.54302699 -22.67181275 102.26745453 -26.59765625 108.97265625 C-32.32396758 118.75537136 -38.01130013 128.5541839 -43.5625 138.4375 C-49.18625549 148.44442576 -54.97030492 158.35249906 -60.79199219 168.24487305 C-65.02312134 175.43698189 -69.22028368 182.64690477 -73.37695312 189.88232422 C-75.81279804 194.12047316 -78.26225786 198.35067298 -80.71240234 202.58056641 C-82.03848125 204.88278088 -83.34496009 207.19449999 -84.64453125 209.51171875 C-89.95033306 218.68960473 -96.25199973 224.97683686 -106.390625 228.58203125 C-116.18044193 230.86899668 -124.62724723 229.93361462 -133.46875 225.24609375 C-140.27514724 220.36116539 -144.57552585 214.66929063 -148.5625 207.375 C-149.51496134 205.68191815 -150.46810016 203.98921726 -151.421875 202.296875 C-151.89431641 201.45060547 -152.36675781 200.60433594 -152.85351562 199.73242188 C-154.95393095 195.9986766 -157.13076518 192.31161784 -159.3125 188.625 C-160.12373358 187.24611473 -160.93493142 185.86720843 -161.74609375 184.48828125 C-163.51992232 181.47962498 -165.30625104 178.47868981 -167.09765625 175.48046875 C-167.79459595 174.30895264 -167.79459595 174.30895264 -168.50561523 173.11376953 C-169.40123304 171.60867176 -170.30034674 170.10564735 -171.20336914 168.60498047 C-174.25 163.47504143 -174.25 163.47504143 -174.25 161.25 C-173.280625 161.30800781 -172.31125 161.36601562 -171.3125 161.42578125 C-155.73244946 162.06522434 -142.43344014 158.36559826 -130.5625 147.875 C-120.01767866 135.9052028 -112.84955821 121.33781818 -104.99365234 107.54223633 C-101.12294898 100.75224972 -97.19643631 93.99620701 -93.25 87.25 C-86.45658306 75.63391115 -79.7695085 63.95918723 -73.11914062 52.26074219 C-68.80065243 44.66490225 -64.42150241 37.10891251 -59.97143555 29.58959961 C-57.95022184 26.16809342 -55.95061756 22.73845721 -54.01171875 19.26953125 C-53.66044922 18.64304687 -53.30917969 18.0165625 -52.94726562 17.37109375 C-52.0052571 15.68385992 -51.07069543 13.99247437 -50.13671875 12.30078125 C-44.76110915 3.60854295 -37.92779614 -2.71234028 -27.8828125 -5.27734375 C-17.49222916 -7.14271554 -9.19928945 -4.95346355 0 0 Z " fill="#64B2F9" transform="translate(230.25,53.75)"/>
<path d="M0 0 C2.94055006 2.72737586 4.86481664 5.24923614 6.6875 8.8125 C9.00060232 13.18615749 11.43394309 17.45862426 14 21.6875 C14.76213036 22.95417952 15.52382222 24.22112294 16.28515625 25.48828125 C17.76617365 27.95248076 19.25110063 30.41413652 20.74169922 32.87255859 C22.65271112 36.03275364 24.54601579 39.20308552 26.4375 42.375 C27.05302734 43.38522217 27.66855469 44.39544434 28.30273438 45.4362793 C31.73616794 51.22852756 34.12338355 56.30327944 35 63 C35.15726562 64.05445313 35.31453125 65.10890625 35.4765625 66.1953125 C35.94027739 75.34758008 32.71679419 81.59787631 28.11132812 89.16650391 C26.4249989 91.94865076 24.84662202 94.7906605 23.25 97.625 C22.22598192 99.402503 21.20188266 101.17995983 20.17626953 102.95654297 C18.34881415 106.13126309 16.53657657 109.31463718 14.72216797 112.49682617 C9.49049581 121.66931406 4.23701543 130.82872157 -1.078125 139.953125 C-3.2436397 143.67613298 -5.36920585 147.42005037 -7.484375 151.171875 C-8.69782794 153.30213388 -9.91136859 155.43234279 -11.125 157.5625 C-11.94943604 159.04327026 -11.94943604 159.04327026 -12.79052734 160.55395508 C-19.55715966 172.3611195 -26.92055438 180.64018479 -40 185 C-49.71540996 185.7719395 -57.73765845 185.79893972 -66 180 C-66.65484375 179.54238281 -67.3096875 179.08476562 -67.984375 178.61328125 C-74.89839172 173.22093915 -79.24607602 165.55375232 -81 157 C-82.30062624 145.42125419 -79.06791525 136.46571704 -72.43359375 127.1015625 C-71.1167392 125.17113267 -70.07091765 123.29089476 -69.0625 121.1875 C-67.53469437 118.0086786 -65.8540173 114.97605386 -64.0625 111.9375 C-60.63527126 106.12358119 -57.31104141 100.25578267 -54 94.375 C-47.3839346 82.63914295 -40.65773364 70.96858615 -33.91162109 59.30712891 C-32.00717574 56.01241413 -30.10643497 52.71559228 -28.20703125 49.41796875 C-17.98774746 31.67875991 -17.98774746 31.67875991 -13.05078125 23.2421875 C-12.41277588 22.15180176 -11.77477051 21.06141602 -11.11743164 19.93798828 C-9.90618067 17.87019965 -8.69322945 15.80340568 -7.47827148 13.73779297 C-4.83179658 9.22167497 -2.25220539 4.7264592 0 0 Z " fill="#7E5DE9" transform="translate(258,98)"/>
<path d="M0 0 C1.20849609 0.69222656 1.20849609 0.69222656 2.44140625 1.3984375 C9.47768626 6.08929084 13.62814819 12.99148851 16 21 C18.29698069 33.60815223 14.33779456 42.37799794 8 53 C6.78755502 55.0675879 5.57533251 57.13530627 4.36328125 59.203125 C1.97228049 63.26248425 -0.43293101 67.31260918 -2.85418701 71.35397339 C-6.87976327 78.07571548 -10.79332053 84.85322138 -14.625 91.6875 C-19.15944136 99.75783109 -23.73363943 107.8030889 -28.375 115.8125 C-28.93396973 116.78469482 -29.49293945 117.75688965 -30.06884766 118.75854492 C-37.26708566 131.1355331 -43.61892172 141.68908435 -58 146 C-68.26798279 147.19656772 -77.42866652 146.4557423 -86.171875 140.52734375 C-93.27749943 134.87757094 -99.28649115 126.01600622 -100.37109375 116.87109375 C-100.67132612 101.34731396 -93.01371005 90.19834651 -85.34277344 77.27294922 C-83.46607349 74.09620803 -81.63765895 70.89415277 -79.8125 67.6875 C-79.17570312 66.57117188 -78.53890625 65.45484375 -77.8828125 64.3046875 C-77.26148437 63.21414062 -76.64015625 62.12359375 -76 61 C-71.12805366 52.44882448 -66.23848836 43.90838395 -61.28466797 35.40429688 C-58.86033276 31.2387495 -56.46874865 27.05959654 -54.1328125 22.84375 C-47.31851909 10.62566442 -41.17618603 0.44955459 -27.3125 -4.25 C-17.12946213 -6.3927628 -8.96981475 -5.26049286 0 0 Z " fill="#FADA2C" transform="translate(132,53)"/>
<path d="M0 0 C0.66 0.33 1.32 0.66 2 1 C1.04882866 2.1725131 0.08882991 3.33787015 -0.875 4.5 C-1.67550781 5.47453125 -1.67550781 5.47453125 -2.4921875 6.46875 C-2.98976563 6.9740625 -3.48734375 7.479375 -4 8 C-4.66 8 -5.32 8 -6 8 C-6.28875 8.639375 -6.5775 9.27875 -6.875 9.9375 C-8 12 -8 12 -10 13 C-8.65515286 8.95838045 -6.9494838 6.61321846 -3.875 3.6875 C-3.15054688 2.99011719 -2.42609375 2.29273438 -1.6796875 1.57421875 C-1.12539062 1.05472656 -0.57109375 0.53523438 0 0 Z " fill="#FADD42" transform="translate(94,54)"/>
<path d="M0 0 C0.66 0 1.32 0 2 0 C1.50168276 3.68754757 0.89932357 5.60490662 -2 8 C-2.66 7.67 -3.32 7.34 -4 7 C-2.68 4.69 -1.36 2.38 0 0 Z " fill="#72B8F8" transform="translate(173,79)"/>
<path d="M0 0 C1.06505018 3.19515053 1.27693153 3.99008996 0 7 C-2.5625 9.25 -2.5625 9.25 -5 11 C-3.77472971 6.94718288 -2.30119506 3.55639236 0 0 Z " fill="#72B9F8" transform="translate(137,141)"/>
</svg>
